<?xml version="1.0" encoding="UTF-8" standalone="no"?>
<!-- Generator: Adobe Illustrator 17.1.0, SVG Export Plug-In . SVG Version: 6.00 Build 0)  -->

<svg
   xmlns:dc="http://purl.org/dc/elements/1.1/"
   xmlns:cc="http://creativecommons.org/ns#"
   xmlns:rdf="http://www.w3.org/1999/02/22-rdf-syntax-ns#"
   xmlns:svg="http://www.w3.org/2000/svg"
   xmlns="http://www.w3.org/2000/svg"
   xmlns:sodipodi="http://sodipodi.sourceforge.net/DTD/sodipodi-0.dtd"
   xmlns:inkscape="http://www.inkscape.org/namespaces/inkscape"
   version="1.1"
   id="Capa_1"
   x="0px"
   y="0px"
   viewBox="0 0 279 279"
   style="enable-background:new 0 0 279 279;"
   xml:space="preserve"
   inkscape:version="0.91 r13725"
   sodipodi:docname="shop.svg"><metadata
     id="metadata39"><rdf:RDF><cc:Work
         rdf:about=""><dc:format>image/svg+xml</dc:format><dc:type
           rdf:resource="http://purl.org/dc/dcmitype/StillImage" /></cc:Work></rdf:RDF></metadata><defs
     id="defs37" /><sodipodi:namedview
     pagecolor="#ffffff"
     bordercolor="#666666"
     borderopacity="1"
     objecttolerance="10"
     gridtolerance="10"
     guidetolerance="10"
     inkscape:pageopacity="0"
     inkscape:pageshadow="2"
     inkscape:window-width="889"
     inkscape:window-height="480"
     id="namedview35"
     showgrid="false"
     inkscape:zoom="0.84587814"
     inkscape:cx="139.5"
     inkscape:cy="139.5"
     inkscape:window-x="8"
     inkscape:window-y="26"
     inkscape:window-maximized="0"
     inkscape:current-layer="Capa_1" /><path
     d="M262.421,270.339L246.466,72.896C246.151,69.001,242.898,66,238.99,66h-42.833v-9.495C196.157,25.348,171.143,0,139.985,0  h-0.99c-31.157,0-56.838,25.348-56.838,56.505V66H39.99c-3.908,0-7.161,3.001-7.476,6.896l-16,198  c-0.169,2.088,0.543,4.15,1.963,5.689S21.897,279,23.99,279h231c0.006,0,0.014,0,0.02,0c4.143,0,7.5-3.357,7.5-7.5  C262.51,271.105,262.48,270.717,262.421,270.339z M97.157,56.505C97.157,33.619,116.109,15,138.995,15h0.99  c22.886,0,41.172,18.619,41.172,41.505V66h-84V56.505z"
     id="path3"
     style="fill:#008722;fill-opacity:1" /><g
     id="g5" /><g
     id="g7" /><g
     id="g9" /><g
     id="g11" /><g
     id="g13" /><g
     id="g15" /><g
     id="g17" /><g
     id="g19" /><g
     id="g21" /><g
     id="g23" /><g
     id="g25" /><g
     id="g27" /><g
     id="g29" /><g
     id="g31" /><g
     id="g33" /></svg>